<svg version="1.1" xmlns="http://www.w3.org/2000/svg" xmlns:xlink="http://www.w3.org/1999/xlink" width="92.91198" height="90.53598" viewBox="0,0,92.91198,90.53598"><g transform="translate(-193.54405,-134.73203)"><g data-paper-data="{&quot;isPaintingLayer&quot;:true}" fill-rule="nonzero" stroke-linejoin="miter" stroke-miterlimit="10" stroke-dasharray="" stroke-dashoffset="0" style="mix-blend-mode: normal"><path d="M283.95601,180.00003c0,23.6201 -19.67976,42.76799 -43.95598,42.76799c-24.27622,0 -43.95598,-19.14788 -43.95598,-42.76799c0,-23.6201 19.67977,-42.76799 43.95599,-42.76799c24.27622,0 43.95599,19.14788 43.95599,42.76799z" fill="#fff105" stroke="#ffffff" stroke-width="5" stroke-linecap="butt"/><path d="M283.95601,180.00003c0,23.6201 -19.67976,42.76799 -43.95598,42.76799c-24.27622,0 -43.95598,-19.14788 -43.95598,-42.76799c0,-23.6201 19.67977,-42.76799 43.95599,-42.76799c24.27622,0 43.95599,19.14788 43.95599,42.76799z" fill="#fff105" stroke="#ffffff" stroke-width="5" stroke-linecap="butt"/><path d="" fill="#000000" stroke="none" stroke-width="0.5" stroke-linecap="butt"/><path d="M228.26814,179.84559l0.4752,-22.33439" fill="none" stroke="#ffffff" stroke-width="5" stroke-linecap="round"/><path d="M249.17694,157.03601l-0.4752,21.85919" fill="none" stroke="#ffffff" stroke-width="5" stroke-linecap="round"/></g></g></svg>