<svg version="1.1" xmlns="http://www.w3.org/2000/svg" xmlns:xlink="http://www.w3.org/1999/xlink" width="55.1631" height="53.63455" viewBox="0,0,55.1631,53.63455"><g transform="translate(-193.32213,-127.87987)"><g data-paper-data="{&quot;isPaintingLayer&quot;:true}" fill-rule="nonzero" stroke="#ffffff" stroke-width="2" stroke-linejoin="miter" stroke-miterlimit="10" stroke-dasharray="" stroke-dashoffset="0" style="mix-blend-mode: normal"><g><path d="M194.32213,180.51442v-51.63455h53.1631v51.63455z" fill="#091400" stroke-linecap="butt"/><path d="M199.37577,168.88732l45.05967,1.40811" fill="none" stroke-linecap="round"/><path d="M242.65331,133.0684l-23.94472,19.06709l-4.87762,-5.32105l-14.18947,-15.96315" fill="none" stroke-linecap="round"/><path d="M203.63228,149.47497c0,1.71426 -1.29042,3.10394 -2.88223,3.10394c-1.59182,0 -2.88223,-1.38968 -2.88223,-3.10394c0,-1.71426 1.29042,-3.10394 2.88223,-3.10394c1.59182,0 2.88223,1.38968 2.88223,3.10394z" fill="#ffffff" stroke-linecap="butt"/><path d="M241.32304,149.91839c0,1.95916 -1.38968,3.54736 -3.10394,3.54736c-1.71426,0 -3.10394,-1.58821 -3.10394,-3.54736c0,-1.95916 1.38968,-3.54736 3.10394,-3.54736c1.71426,0 3.10394,1.58821 3.10394,3.54736z" fill="#ffffff" stroke-linecap="butt"/></g></g></g></svg>